<?xml version="1.0" encoding="UTF-8" standalone="no"?>
<!-- Created with Inkscape (http://www.inkscape.org/) -->

<svg
   xmlns:dc="http://purl.org/dc/elements/1.1/"
   xmlns:cc="http://creativecommons.org/ns#"
   xmlns:rdf="http://www.w3.org/1999/02/22-rdf-syntax-ns#"
   xmlns:svg="http://www.w3.org/2000/svg"
   xmlns="http://www.w3.org/2000/svg"
   xmlns:sodipodi="http://sodipodi.sourceforge.net/DTD/sodipodi-0.dtd"
   xmlns:inkscape="http://www.inkscape.org/namespaces/inkscape"
   width="130.86398mm"
   height="123.52295mm"
   viewBox="0 0 130.86398 123.52295"
   version="1.1"
   id="svg3801"
   inkscape:version="0.92.0 r15299"
   sodipodi:docname="Checkbox-latex.svg">
  <defs
     id="defs3795" />
  <sodipodi:namedview
     id="base"
     pagecolor="#ffffff"
     bordercolor="#666666"
     borderopacity="1.0"
     inkscape:pageopacity="0.0"
     inkscape:pageshadow="2"
     inkscape:zoom="0.98994949"
     inkscape:cx="38.105066"
     inkscape:cy="405.90158"
     inkscape:document-units="mm"
     inkscape:current-layer="layer1"
     showgrid="false"
     inkscape:window-width="1920"
     inkscape:window-height="1017"
     inkscape:window-x="1912"
     inkscape:window-y="-8"
     inkscape:window-maximized="1"
     fit-margin-top="0"
     fit-margin-left="0"
     fit-margin-right="0"
     fit-margin-bottom="0" />
  <metadata
     id="metadata3798">
    <rdf:RDF>
      <cc:Work
         rdf:about="">
        <dc:format>image/svg+xml</dc:format>
        <dc:type
           rdf:resource="http://purl.org/dc/dcmitype/StillImage" />
        <dc:title></dc:title>
      </cc:Work>
    </rdf:RDF>
  </metadata>
  <g
     inkscape:label="Laag 1"
     inkscape:groupmode="layer"
     id="layer1"
     transform="translate(-0.51901397,-173.12212)">
    <g
       id="g3814"
       transform="translate(-7.467429,169.44888)">
      <path
         style="fill:#010101;stroke-width:0.26458335"
         d="m 25.373702,126.9994 c -8.872448,-0.1187 -16.2840894,-0.27428 -16.4703134,-0.34574 -0.265283,-0.1018 -0.349555,-2.23693 -0.389235,-9.86168 -0.02785,-5.35245 -0.117887,-8.60064 -0.200071,-7.21819 -0.233738,3.93179 -0.425987,-38.965429 -0.272726,-60.854173 0.07591,-10.841302 0.192708,-18.580365 0.259554,-17.197917 0.06685,1.382448 0.183332,-1.772708 0.258859,-7.011458 l 0.137321,-9.525 8.9958344,-0.18332 c 15.101184,-0.307738 76.938028,-0.283016 89.758495,0.03588 l 11.971,0.29777 3.24254,-2.536842 c 3.50909,-2.7453713 8.18774,-5.9850543 11.25201,-7.7913373 l 1.92403,-1.134154 1.50472,0.999074 1.50471,0.999074 -1.1989,1.085051 c -0.6594,0.596777 -3.44429,2.811456 -6.18865,4.9215083 -7.66403,5.892632 -10.59421,8.673672 -13.38107,12.7 l -0.64097,0.926042 -0.13229,50.57956 c -0.0728,27.818762 -0.22098,50.668242 -0.32938,50.776612 -0.49986,0.49974 -62.458518,0.72919 -91.605468,0.33924 z m 63.677291,-5.62984 c 14.210677,-0.0142 21.970997,-0.11457 22.137797,-0.2864 0.16341,-0.16835 0.28456,-16.76239 0.33307,-45.622232 0.0643,-38.250406 0.0194,-45.376598 -0.28674,-45.478634 -0.19964,-0.06655 -0.70522,0.282358 -1.1235,0.775351 -20.613077,24.294801 -34.566937,51.817123 -41.600687,82.052365 -0.498703,2.14372 -0.988296,4.02965 -1.087985,4.19096 -0.09969,0.1613 -1.358242,1.05461 -2.796784,1.98513 -3.601964,2.32993 -3.565356,2.91635 0.162597,2.60448 1.309688,-0.10956 12.22769,-0.20902 24.262232,-0.22102 z m -35.629037,-0.21778 c 0.09153,-0.23851 -1.21467,-2.61662 -3.252772,-5.92213 -5.385147,-8.73393 -20.38909,-33.531702 -20.563628,-33.986542 -0.119139,-0.31047 1.314885,-1.36993 5.816094,-4.29695 3.28582,-2.13668 6.085917,-3.88487 6.222436,-3.88487 0.532064,0 10.566721,16.06029 16.448817,26.32604 1.37456,2.398962 1.599723,2.251692 3.23623,-2.11667 6.89346,-18.40084 16.495517,-35.694236 28.57368,-51.461458 5.40694,-7.058395 10.293287,-12.728194 17.251607,-20.017623 2.38331,-2.496724 4.3333,-4.729146 4.3333,-4.960937 0,-0.383998 -4.31081,-0.42144 -48.522735,-0.42144 -44.002315,0 -48.537699,0.03899 -48.683336,0.418515 -0.08833,0.230183 -0.1606,22.855894 -0.1606,50.279359 0,49.204366 0.0068,49.863346 0.51627,50.050756 0.283948,0.10445 9.09224,0.2355 19.573983,0.29121 16.794251,0.0893 19.075878,0.054 19.210654,-0.29726 z"
         id="path3816"
         inkscape:connector-curvature="0" />
    </g>
  </g>
</svg>
